<svg width="221" height="205" viewBox="0 0 221 205" fill="none" xmlns="http://www.w3.org/2000/svg">
<path d="M39.8971 96.0477C29.2672 93.8762 24.275 91.3947 17.5203 84.1555C4.76836 94.8709 1.50812 105.507 0.544718 124.343C-0.891843 152.43 32.7395 171.363 39.1255 169.041C52.6288 169.451 85.8084 169.041 85.8084 169.041C98.3023 164.49 102.031 159.389 102.784 145.667H39.8971C27.525 139.845 24.0757 134.564 22.15 122.703C22.9515 109.13 26.6628 103.204 39.8971 96.0477Z" fill="#0099A5" stroke="#0995A6"/>
<path d="M85.8601 95.6376C85.8601 95.6376 48.4367 97.688 37.6341 95.6376C31.0754 94.3928 15.5466 84.1555 15.5466 84.1555C15.5466 84.1555 8.67092 76.0712 7.15524 73.4935C3.29715 66.9323 1.3681 59.961 0.596483 47.6587C-0.175134 35.3565 3.68295 26.3348 12.1707 14.8526C19.1428 5.4209 33.9046 1.04677 39.9489 0.5H85.8601C99.132 0.5 102.193 15.2627 102.064 22.6441C86.6318 22.5074 52.6806 21.4139 41.4922 22.6441C30.6378 23.8376 22.5876 34.5363 22.2018 41.0975C21.8159 47.6587 21.5266 45.6084 22.2018 54.63C22.8769 63.6517 35.2228 72.2633 39.5631 73.4935C43.9035 74.7238 100.907 73.4935 100.907 73.4935C101.035 74.8605 101.215 78.3324 100.907 81.285C100.521 84.9757 100.135 84.5656 97.0486 88.6663C94.5794 91.947 88.5608 94.6808 85.8601 95.6376Z" fill="#FC4A00" stroke="#FF4801"/>
<path d="M181.103 108.952C191.733 111.124 196.725 113.605 203.48 120.844C216.232 110.129 219.492 99.4927 220.455 80.657C221.892 52.5704 188.261 33.6371 181.874 35.9588C168.371 35.5487 135.192 35.9588 135.192 35.9588C122.698 40.5102 118.969 45.6113 118.216 59.3331L181.103 59.3331C193.475 65.1554 196.924 70.4357 198.85 82.2973C198.049 95.8697 194.337 101.796 181.103 108.952Z" fill="#0099A5" stroke="#0995A6"/>
<path d="M135.14 109.362C135.14 109.362 172.563 107.312 183.366 109.362C189.925 110.607 205.453 120.844 205.453 120.844C205.453 120.844 212.329 128.929 213.845 131.506C217.703 138.068 219.632 145.039 220.404 157.341C221.175 169.644 217.317 178.665 208.829 190.147C201.857 199.579 187.095 203.953 181.051 204.5H135.14C121.868 204.5 118.807 189.737 118.936 182.356C134.368 182.493 168.319 183.586 179.508 182.356C190.362 181.162 198.412 170.464 198.798 163.902C199.184 157.341 199.473 159.392 198.798 150.37C198.123 141.348 185.777 132.737 181.437 131.506C177.097 130.276 120.093 131.506 120.093 131.506C119.965 130.14 119.785 126.668 120.093 123.715C120.479 120.024 120.865 120.434 123.951 116.334C126.421 113.053 132.439 110.319 135.14 109.362Z" fill="#FC4A00" stroke="#FF4801"/>
</svg>
